<svg width="100%" height="100%" viewBox="0 0 347 104" fill="none" xmlns="http://www.w3.org/2000/svg">
<path d="M66.7031 69C63.4844 72.25 59.6406 74.7969 55.1719 76.6406C50.7031 78.4844 45.8281 79.4062 40.5469 79.4062C35.2656 79.4062 30.3906 78.5 25.9219 76.6875C21.4844 74.875 17.625 72.3281 14.3438 69.0469C11.0625 65.7344 8.51562 61.8594 6.70312 57.4219C4.89062 52.9531 3.98438 48.0938 3.98438 42.8438C3.98438 37.5625 4.89062 32.7031 6.70312 28.2656C8.51562 23.7969 11.0625 19.9219 14.3438 16.6406C17.625 13.3594 21.4844 10.8125 25.9219 9C30.3906 7.1875 35.2656 6.28125 40.5469 6.28125C45.7969 6.28125 50.6562 7.20312 55.125 9.04688C59.5938 10.8594 63.4375 13.3906 66.6562 16.6406L60.8906 22.5C58.3906 19.7188 55.3906 17.5469 51.8906 15.9844C48.3906 14.3906 44.5625 13.5938 40.4062 13.5938C36.375 13.5938 32.6562 14.3281 29.25 15.7969C25.8438 17.2344 22.875 19.2812 20.3438 21.9375C17.8438 24.5625 15.8906 27.6562 14.4844 31.2188C13.1094 34.7812 12.4219 38.6562 12.4219 42.8438C12.4219 47.0625 13.1094 50.9531 14.4844 54.5156C15.8906 58.0469 17.8438 61.1406 20.3438 63.7969C22.875 66.4219 25.8438 68.4688 29.25 69.9375C32.6562 71.375 36.375 72.0938 40.4062 72.0938C44.5625 72.0938 48.3906 71.3125 51.8906 69.75C55.3906 68.1562 58.3906 65.9688 60.8906 63.1875L66.7031 69Z" fill="currentColor"/>
<path d="M115.781 78H109.172L108.656 71.8125C106.938 74.0312 104.75 75.7812 102.094 77.0625C99.4375 78.3125 96.4688 78.9375 93.1875 78.9375C89.8125 78.9375 86.7969 78.2812 84.1406 76.9688C81.4844 75.625 79.3906 73.7969 77.8594 71.4844C76.3594 69.1719 75.6094 66.5469 75.6094 63.6094C75.6094 60.5156 76.4219 57.7969 78.0469 55.4531C79.7031 53.0781 81.9375 51.2188 84.75 49.875C87.5938 48.5312 90.8125 47.8594 94.4062 47.8594C96.75 47.8594 99.1406 48.1562 101.578 48.75C104.016 49.3125 106.188 50.0938 108.094 51.0938V49.125C108.094 46.625 107.469 44.5 106.219 42.75C104.969 40.9688 103.297 39.6094 101.203 38.6719C99.1094 37.7031 96.7969 37.2188 94.2656 37.2188C92.0781 37.2188 89.8438 37.625 87.5625 38.4375C85.2812 39.2188 83.0938 40.4375 81 42.0938L78.4688 35.4844C81.1875 33.7344 84.0469 32.4219 87.0469 31.5469C90.0469 30.6406 93.0156 30.1875 95.9531 30.1875C100.016 30.1875 103.516 31.0156 106.453 32.6719C109.422 34.2969 111.719 36.625 113.344 39.6562C114.969 42.6562 115.781 46.2188 115.781 50.3438V78ZM94.5469 71.9062C96.9531 71.9062 99.1562 71.4062 101.156 70.4062C103.156 69.4062 104.781 67.9688 106.031 66.0938C107.281 64.1875 107.969 61.9375 108.094 59.3438V58.5469C106.375 57.2031 104.438 56.1719 102.281 55.4531C100.156 54.7031 97.9844 54.3281 95.7656 54.3281C92.2969 54.3281 89.3906 55.1719 87.0469 56.8594C84.7344 58.5469 83.5781 60.6875 83.5781 63.2812C83.5781 64.9062 84.0469 66.375 84.9844 67.6875C85.9531 69 87.2656 70.0312 88.9219 70.7812C90.5781 71.5312 92.4531 71.9062 94.5469 71.9062Z" fill="currentColor"/>
<path d="M137.109 78H129.422V31.125H136.172L136.5 40.4062C138.125 37.1875 140.406 34.6875 143.344 32.9062C146.312 31.0938 149.719 30.1875 153.562 30.1875C154.406 30.1875 155.266 30.2344 156.141 30.3281C157.016 30.4219 157.891 30.5625 158.766 30.75L157.828 37.6875C156.109 37.2812 154.406 37.0781 152.719 37.0781C149.656 37.0781 146.938 37.8281 144.562 39.3281C142.219 40.8281 140.391 42.8906 139.078 45.5156C137.766 48.1406 137.109 51.1562 137.109 54.5625V78Z" fill="currentColor"/>
<path d="M207.844 72.2344C202.031 76.7031 195.625 78.9375 188.625 78.9375C183.75 78.9375 179.375 77.8438 175.5 75.6562C171.625 73.4688 168.562 70.5 166.312 66.75C164.094 62.9688 162.984 58.7031 162.984 53.9531C162.984 49.3906 164.016 45.3281 166.078 41.7656C168.141 38.1719 170.969 35.3438 174.562 33.2812C178.156 31.2188 182.234 30.1875 186.797 30.1875C191.484 30.1875 195.609 31.3125 199.172 33.5625C202.766 35.8125 205.562 38.9375 207.562 42.9375C209.562 46.9375 210.562 51.5625 210.562 56.8125V58.3125H171.328C171.891 61.0625 173.016 63.4531 174.703 65.4844C176.422 67.5156 178.547 69.0938 181.078 70.2188C183.609 71.3438 186.438 71.9062 189.562 71.9062C194.938 71.9062 199.844 70.1406 204.281 66.6094L207.844 72.2344ZM171.047 51.75H203.297C202.953 48.8438 202.047 46.3125 200.578 44.1562C199.141 41.9688 197.266 40.2656 194.953 39.0469C192.672 37.8281 190.094 37.2188 187.219 37.2188C184.312 37.2188 181.688 37.8281 179.344 39.0469C177.031 40.2656 175.141 41.9688 173.672 44.1562C172.234 46.3125 171.359 48.8438 171.047 51.75Z" fill="currentColor"/>
<path d="M262.5 72.2344C256.688 76.7031 250.281 78.9375 243.281 78.9375C238.406 78.9375 234.031 77.8438 230.156 75.6562C226.281 73.4688 223.219 70.5 220.969 66.75C218.75 62.9688 217.641 58.7031 217.641 53.9531C217.641 49.3906 218.672 45.3281 220.734 41.7656C222.797 38.1719 225.625 35.3438 229.219 33.2812C232.812 31.2188 236.891 30.1875 241.453 30.1875C246.141 30.1875 250.266 31.3125 253.828 33.5625C257.422 35.8125 260.219 38.9375 262.219 42.9375C264.219 46.9375 265.219 51.5625 265.219 56.8125V58.3125H225.984C226.547 61.0625 227.672 63.4531 229.359 65.4844C231.078 67.5156 233.203 69.0938 235.734 70.2188C238.266 71.3438 241.094 71.9062 244.219 71.9062C249.594 71.9062 254.5 70.1406 258.938 66.6094L262.5 72.2344ZM225.703 51.75H257.953C257.609 48.8438 256.703 46.3125 255.234 44.1562C253.797 41.9688 251.922 40.2656 249.609 39.0469C247.328 37.8281 244.75 37.2188 241.875 37.2188C238.969 37.2188 236.344 37.8281 234 39.0469C231.688 40.2656 229.797 41.9688 228.328 44.1562C226.891 46.3125 226.016 48.8438 225.703 51.75Z" fill="currentColor"/>
<path d="M283.734 78H276.047V31.125H282.797L283.125 40.4062C284.75 37.1875 287.031 34.6875 289.969 32.9062C292.938 31.0938 296.344 30.1875 300.188 30.1875C301.031 30.1875 301.891 30.2344 302.766 30.3281C303.641 30.4219 304.516 30.5625 305.391 30.75L304.453 37.6875C302.734 37.2812 301.031 37.0781 299.344 37.0781C296.281 37.0781 293.562 37.8281 291.188 39.3281C288.844 40.8281 287.016 42.8906 285.703 45.5156C284.391 48.1406 283.734 51.1562 283.734 54.5625V78Z" fill="currentColor"/>
<path d="M310.078 73.9219L312.094 66.7031C313.219 67.7656 314.5 68.6875 315.938 69.4688C317.375 70.25 318.891 70.8594 320.484 71.2969C322.078 71.7031 323.688 71.9062 325.312 71.9062C328.219 71.9062 330.562 71.2656 332.344 69.9844C334.125 68.7031 335.016 67.0312 335.016 64.9688C335.016 63.4688 334.547 62.2344 333.609 61.2656C332.703 60.2656 331.5 59.4062 330 58.6875C328.5 57.9688 326.891 57.2812 325.172 56.625C323.078 55.8125 321 54.8906 318.938 53.8594C316.875 52.8281 315.156 51.4688 313.781 49.7812C312.438 48.0938 311.766 45.875 311.766 43.125C311.766 40.5 312.422 38.2188 313.734 36.2812C315.047 34.3438 316.875 32.8438 319.219 31.7812C321.594 30.7188 324.312 30.1875 327.375 30.1875C332 30.1875 336.547 31.3438 341.016 33.6562L338.719 40.5938C337.719 39.9375 336.562 39.3594 335.25 38.8594C333.938 38.3281 332.594 37.9219 331.219 37.6406C329.844 37.3594 328.547 37.2188 327.328 37.2188C325.047 37.2188 323.203 37.75 321.797 38.8125C320.391 39.8438 319.688 41.2344 319.688 42.9844C319.688 43.9844 319.969 44.9062 320.531 45.75C321.125 46.5625 322.109 47.375 323.484 48.1875C324.859 49 326.766 49.9062 329.203 50.9062C331.359 51.7812 333.484 52.7812 335.578 53.9062C337.672 55 339.406 56.4219 340.781 58.1719C342.188 59.8906 342.891 62.1406 342.891 64.9219C342.891 67.6719 342.156 70.1094 340.688 72.2344C339.25 74.3281 337.234 75.9688 334.641 77.1562C332.078 78.3438 329.109 78.9375 325.734 78.9375C320.141 78.9375 314.922 77.2656 310.078 73.9219Z" fill="currentColor"/>
</svg>
