<svg width="100%" height="100%" viewBox="0 0 359 104" fill="none" xmlns="http://www.w3.org/2000/svg">
<path d="M66.7031 69C63.4844 72.25 59.6406 74.7969 55.1719 76.6406C50.7031 78.4844 45.8281 79.4062 40.5469 79.4062C35.2656 79.4062 30.3906 78.5 25.9219 76.6875C21.4844 74.875 17.625 72.3281 14.3438 69.0469C11.0625 65.7344 8.51562 61.8594 6.70312 57.4219C4.89062 52.9531 3.98438 48.0938 3.98438 42.8438C3.98438 37.5625 4.89062 32.7031 6.70312 28.2656C8.51562 23.7969 11.0625 19.9219 14.3438 16.6406C17.625 13.3594 21.4844 10.8125 25.9219 9C30.3906 7.1875 35.2656 6.28125 40.5469 6.28125C45.7969 6.28125 50.6562 7.20312 55.125 9.04688C59.5938 10.8594 63.4375 13.3906 66.6562 16.6406L60.8906 22.5C58.3906 19.7188 55.3906 17.5469 51.8906 15.9844C48.3906 14.3906 44.5625 13.5938 40.4062 13.5938C36.375 13.5938 32.6562 14.3281 29.25 15.7969C25.8438 17.2344 22.875 19.2812 20.3438 21.9375C17.8438 24.5625 15.8906 27.6562 14.4844 31.2188C13.1094 34.7812 12.4219 38.6562 12.4219 42.8438C12.4219 47.0625 13.1094 50.9531 14.4844 54.5156C15.8906 58.0469 17.8438 61.1406 20.3438 63.7969C22.875 66.4219 25.8438 68.4688 29.25 69.9375C32.6562 71.375 36.375 72.0938 40.4062 72.0938C44.5625 72.0938 48.3906 71.3125 51.8906 69.75C55.3906 68.1562 58.3906 65.9688 60.8906 63.1875L66.7031 69Z" fill="currentColor"/>
<path d="M98.7656 78.9375C94.1094 78.9375 89.9219 77.875 86.2031 75.75C82.4844 73.625 79.5469 70.7344 77.3906 67.0781C75.2656 63.3906 74.2031 59.2188 74.2031 54.5625C74.2031 49.9375 75.2656 45.7969 77.3906 42.1406C79.5469 38.4531 82.4844 35.5469 86.2031 33.4219C89.9219 31.2656 94.1094 30.1875 98.7656 30.1875C103.422 30.1875 107.594 31.2656 111.281 33.4219C114.969 35.5469 117.875 38.4531 120 42.1406C122.125 45.7969 123.188 49.9375 123.188 54.5625C123.188 59.2188 122.125 63.3906 120 67.0781C117.875 70.7344 114.969 73.625 111.281 75.75C107.594 77.875 103.422 78.9375 98.7656 78.9375ZM98.7188 72C101.875 72 104.703 71.2344 107.203 69.7031C109.703 68.1719 111.672 66.0938 113.109 63.4688C114.578 60.8438 115.312 57.8594 115.312 54.5156C115.312 51.2344 114.578 48.2812 113.109 45.6562C111.672 43.0312 109.703 40.9531 107.203 39.4219C104.703 37.8906 101.875 37.125 98.7188 37.125C95.5625 37.125 92.7188 37.8906 90.1875 39.4219C87.6875 40.9531 85.7031 43.0312 84.2344 45.6562C82.7969 48.2812 82.0781 51.2344 82.0781 54.5156C82.0781 57.8594 82.7969 60.8438 84.2344 63.4688C85.7031 66.0938 87.6875 68.1719 90.1875 69.7031C92.7188 71.2344 95.5625 72 98.7188 72Z" fill="currentColor"/>
<path d="M177.891 78H170.203V51.8438C170.203 47.4062 168.938 43.8594 166.406 41.2031C163.875 38.5469 160.516 37.2188 156.328 37.2188C151.984 37.2188 148.453 38.6562 145.734 41.5312C143.047 44.375 141.703 48.125 141.703 52.7812V78H134.016V31.125H140.719L141 38.7188C142.719 35.9688 144.984 33.8594 147.797 32.3906C150.609 30.9219 153.922 30.1875 157.734 30.1875C163.953 30.1875 168.859 32.0625 172.453 35.8125C176.078 39.5625 177.891 44.7031 177.891 51.2344V78Z" fill="currentColor"/>
<path d="M217.734 76.875C214.641 78.25 211.625 78.9375 208.688 78.9375C205.875 78.9375 203.406 78.3281 201.281 77.1094C199.156 75.8594 197.5 74.125 196.312 71.9062C195.125 69.6562 194.531 67.0469 194.531 64.0781V38.0156H186.328V31.125H194.906V19.4062H202.219V31.125H216.234V38.0156H202.219V62.6719C202.219 65.4844 202.969 67.75 204.469 69.4688C206 71.1875 208 72.0469 210.469 72.0469C212.469 72.0469 214.469 71.4531 216.469 70.2656L217.734 76.875Z" fill="currentColor"/>
<path d="M264.938 78H258.328L257.812 71.8125C256.094 74.0312 253.906 75.7812 251.25 77.0625C248.594 78.3125 245.625 78.9375 242.344 78.9375C238.969 78.9375 235.953 78.2812 233.297 76.9688C230.641 75.625 228.547 73.7969 227.016 71.4844C225.516 69.1719 224.766 66.5469 224.766 63.6094C224.766 60.5156 225.578 57.7969 227.203 55.4531C228.859 53.0781 231.094 51.2188 233.906 49.875C236.75 48.5312 239.969 47.8594 243.562 47.8594C245.906 47.8594 248.297 48.1562 250.734 48.75C253.172 49.3125 255.344 50.0938 257.25 51.0938V49.125C257.25 46.625 256.625 44.5 255.375 42.75C254.125 40.9688 252.453 39.6094 250.359 38.6719C248.266 37.7031 245.953 37.2188 243.422 37.2188C241.234 37.2188 239 37.625 236.719 38.4375C234.438 39.2188 232.25 40.4375 230.156 42.0938L227.625 35.4844C230.344 33.7344 233.203 32.4219 236.203 31.5469C239.203 30.6406 242.172 30.1875 245.109 30.1875C249.172 30.1875 252.672 31.0156 255.609 32.6719C258.578 34.2969 260.875 36.625 262.5 39.6562C264.125 42.6562 264.938 46.2188 264.938 50.3438V78ZM243.703 71.9062C246.109 71.9062 248.312 71.4062 250.312 70.4062C252.312 69.4062 253.938 67.9688 255.188 66.0938C256.438 64.1875 257.125 61.9375 257.25 59.3438V58.5469C255.531 57.2031 253.594 56.1719 251.438 55.4531C249.312 54.7031 247.141 54.3281 244.922 54.3281C241.453 54.3281 238.547 55.1719 236.203 56.8594C233.891 58.5469 232.734 60.6875 232.734 63.2812C232.734 64.9062 233.203 66.375 234.141 67.6875C235.109 69 236.422 70.0312 238.078 70.7812C239.734 71.5312 241.609 71.9062 243.703 71.9062Z" fill="currentColor"/>
<path d="M317.531 71.25C315.25 73.7188 312.547 75.625 309.422 76.9688C306.297 78.2812 302.938 78.9375 299.344 78.9375C294.688 78.9375 290.5 77.875 286.781 75.75C283.094 73.625 280.172 70.7188 278.016 67.0312C275.891 63.3438 274.828 59.1875 274.828 54.5625C274.828 49.9062 275.891 45.75 278.016 42.0938C280.172 38.4062 283.094 35.5 286.781 33.375C290.5 31.25 294.688 30.1875 299.344 30.1875C302.906 30.1875 306.25 30.8438 309.375 32.1562C312.5 33.4688 315.203 35.3594 317.484 37.8281L312.891 42.6562C311.234 40.9062 309.25 39.5625 306.938 38.625C304.656 37.6875 302.234 37.2188 299.672 37.2188C296.391 37.2188 293.469 37.9688 290.906 39.4688C288.375 40.9375 286.375 42.9688 284.906 45.5625C283.469 48.1562 282.75 51.1406 282.75 54.5156C282.75 57.8906 283.469 60.8906 284.906 63.5156C286.375 66.1406 288.375 68.2031 290.906 69.7031C293.469 71.1719 296.391 71.9062 299.672 71.9062C302.234 71.9062 304.672 71.4375 306.984 70.5C309.297 69.5312 311.266 68.1875 312.891 66.4688L317.531 71.25Z" fill="currentColor"/>
<path d="M355.078 76.875C351.984 78.25 348.969 78.9375 346.031 78.9375C343.219 78.9375 340.75 78.3281 338.625 77.1094C336.5 75.8594 334.844 74.125 333.656 71.9062C332.469 69.6562 331.875 67.0469 331.875 64.0781V38.0156H323.672V31.125H332.25V19.4062H339.562V31.125H353.578V38.0156H339.562V62.6719C339.562 65.4844 340.312 67.75 341.812 69.4688C343.344 71.1875 345.344 72.0469 347.812 72.0469C349.812 72.0469 351.812 71.4531 353.812 70.2656L355.078 76.875Z" fill="currentColor"/>
</svg>
