<svg width="100%" height="100%" viewBox="0 0 575 104" fill="none" xmlns="http://www.w3.org/2000/svg">
<path d="M75.1406 78H68.0156L50.2969 21.8906L32.5781 78H25.4531L2.57812 7.6875H11.2031L28.9688 63.9375L46.7344 7.6875H53.8594L71.5781 63.7969L89.25 7.6875H97.9219L75.1406 78Z" fill="currentColor"/>
<path d="M107.766 78V7.6875H115.453V38.1562C118.984 32.8438 124.453 30.1875 131.859 30.1875C138.078 30.1875 142.922 32.0469 146.391 35.7656C149.891 39.4531 151.641 44.6094 151.641 51.2344V78H143.953V53.0156C143.953 47.9844 142.703 44.0781 140.203 41.2969C137.734 38.4844 134.281 37.0781 129.844 37.0781C125.375 37.0781 121.859 38.5 119.297 41.3438C116.734 44.1875 115.453 48.0781 115.453 53.0156V78H107.766Z" fill="currentColor"/>
<path d="M203.062 78H196.453L195.938 71.8125C194.219 74.0312 192.031 75.7812 189.375 77.0625C186.719 78.3125 183.75 78.9375 180.469 78.9375C177.094 78.9375 174.078 78.2812 171.422 76.9688C168.766 75.625 166.672 73.7969 165.141 71.4844C163.641 69.1719 162.891 66.5469 162.891 63.6094C162.891 60.5156 163.703 57.7969 165.328 55.4531C166.984 53.0781 169.219 51.2188 172.031 49.875C174.875 48.5312 178.094 47.8594 181.688 47.8594C184.031 47.8594 186.422 48.1562 188.859 48.75C191.297 49.3125 193.469 50.0938 195.375 51.0938V49.125C195.375 46.625 194.75 44.5 193.5 42.75C192.25 40.9688 190.578 39.6094 188.484 38.6719C186.391 37.7031 184.078 37.2188 181.547 37.2188C179.359 37.2188 177.125 37.625 174.844 38.4375C172.562 39.2188 170.375 40.4375 168.281 42.0938L165.75 35.4844C168.469 33.7344 171.328 32.4219 174.328 31.5469C177.328 30.6406 180.297 30.1875 183.234 30.1875C187.297 30.1875 190.797 31.0156 193.734 32.6719C196.703 34.2969 199 36.625 200.625 39.6562C202.25 42.6562 203.062 46.2188 203.062 50.3438V78ZM181.828 71.9062C184.234 71.9062 186.438 71.4062 188.438 70.4062C190.438 69.4062 192.062 67.9688 193.312 66.0938C194.562 64.1875 195.25 61.9375 195.375 59.3438V58.5469C193.656 57.2031 191.719 56.1719 189.562 55.4531C187.438 54.7031 185.266 54.3281 183.047 54.3281C179.578 54.3281 176.672 55.1719 174.328 56.8594C172.016 58.5469 170.859 60.6875 170.859 63.2812C170.859 64.9062 171.328 66.375 172.266 67.6875C173.234 69 174.547 70.0312 176.203 70.7812C177.859 71.5312 179.734 71.9062 181.828 71.9062Z" fill="currentColor"/>
<path d="M242.484 76.875C239.391 78.25 236.375 78.9375 233.438 78.9375C230.625 78.9375 228.156 78.3281 226.031 77.1094C223.906 75.8594 222.25 74.125 221.062 71.9062C219.875 69.6562 219.281 67.0469 219.281 64.0781V38.0156H211.078V31.125H219.656V19.4062H226.969V31.125H240.984V38.0156H226.969V62.6719C226.969 65.4844 227.719 67.75 229.219 69.4688C230.75 71.1875 232.75 72.0469 235.219 72.0469C237.219 72.0469 239.219 71.4531 241.219 70.2656L242.484 76.875Z" fill="currentColor"/>
<path d="M344.109 78H336.984L319.266 21.8906L301.547 78H294.422L271.547 7.6875H280.172L297.938 63.9375L315.703 7.6875H322.828L340.547 63.7969L358.219 7.6875H366.891L344.109 78Z" fill="currentColor"/>
<path d="M413.625 72.2344C407.812 76.7031 401.406 78.9375 394.406 78.9375C389.531 78.9375 385.156 77.8438 381.281 75.6562C377.406 73.4688 374.344 70.5 372.094 66.75C369.875 62.9688 368.766 58.7031 368.766 53.9531C368.766 49.3906 369.797 45.3281 371.859 41.7656C373.922 38.1719 376.75 35.3438 380.344 33.2812C383.938 31.2188 388.016 30.1875 392.578 30.1875C397.266 30.1875 401.391 31.3125 404.953 33.5625C408.547 35.8125 411.344 38.9375 413.344 42.9375C415.344 46.9375 416.344 51.5625 416.344 56.8125V58.3125H377.109C377.672 61.0625 378.797 63.4531 380.484 65.4844C382.203 67.5156 384.328 69.0938 386.859 70.2188C389.391 71.3438 392.219 71.9062 395.344 71.9062C400.719 71.9062 405.625 70.1406 410.062 66.6094L413.625 72.2344ZM376.828 51.75H409.078C408.734 48.8438 407.828 46.3125 406.359 44.1562C404.922 41.9688 403.047 40.2656 400.734 39.0469C398.453 37.8281 395.875 37.2188 393 37.2188C390.094 37.2188 387.469 37.8281 385.125 39.0469C382.812 40.2656 380.922 41.9688 379.453 44.1562C378.016 46.3125 377.141 48.8438 376.828 51.75Z" fill="currentColor"/>
<path d="M450.609 78V7.6875H470.859C479.484 7.6875 486.891 9.09375 493.078 11.9062C499.297 14.7188 504.062 18.75 507.375 24C510.719 29.25 512.391 35.5312 512.391 42.8438C512.391 50.125 510.719 56.4062 507.375 61.6875C504.062 66.9375 499.297 70.9688 493.078 73.7812C486.891 76.5938 479.484 78 470.859 78H450.609ZM458.859 70.6875H471.234C478.141 70.6875 484.031 69.5938 488.906 67.4062C493.781 65.2188 497.5 62.0469 500.062 57.8906C502.656 53.7344 503.953 48.7188 503.953 42.8438C503.953 36.9688 502.656 31.9531 500.062 27.7969C497.5 23.6406 493.781 20.4688 488.906 18.2812C484.031 16.0938 478.141 15 471.234 15H458.859V70.6875Z" fill="currentColor"/>
<path d="M544.453 78.9375C539.797 78.9375 535.609 77.875 531.891 75.75C528.172 73.625 525.234 70.7344 523.078 67.0781C520.953 63.3906 519.891 59.2188 519.891 54.5625C519.891 49.9375 520.953 45.7969 523.078 42.1406C525.234 38.4531 528.172 35.5469 531.891 33.4219C535.609 31.2656 539.797 30.1875 544.453 30.1875C549.109 30.1875 553.281 31.2656 556.969 33.4219C560.656 35.5469 563.562 38.4531 565.688 42.1406C567.812 45.7969 568.875 49.9375 568.875 54.5625C568.875 59.2188 567.812 63.3906 565.688 67.0781C563.562 70.7344 560.656 73.625 556.969 75.75C553.281 77.875 549.109 78.9375 544.453 78.9375ZM544.406 72C547.562 72 550.391 71.2344 552.891 69.7031C555.391 68.1719 557.359 66.0938 558.797 63.4688C560.266 60.8438 561 57.8594 561 54.5156C561 51.2344 560.266 48.2812 558.797 45.6562C557.359 43.0312 555.391 40.9531 552.891 39.4219C550.391 37.8906 547.562 37.125 544.406 37.125C541.25 37.125 538.406 37.8906 535.875 39.4219C533.375 40.9531 531.391 43.0312 529.922 45.6562C528.484 48.2812 527.766 51.2344 527.766 54.5156C527.766 57.8594 528.484 60.8438 529.922 63.4688C531.391 66.0938 533.375 68.1719 535.875 69.7031C538.406 71.2344 541.25 72 544.406 72Z" fill="currentColor"/>
</svg>
