<svg width="100%" height="100%" viewBox="0 0 575 104" fill="none" xmlns="http://www.w3.org/2000/svg">
<path d="M75.1406 78H68.0156L50.2969 21.8906L32.5781 78H25.4531L2.57812 7.6875H11.2031L28.9688 63.9375L46.7344 7.6875H53.8594L71.5781 63.7969L89.25 7.6875H97.9219L75.1406 78Z" fill="currentColor"/>
<path d="M107.766 78V7.6875H115.453V38.1562C118.984 32.8438 124.453 30.1875 131.859 30.1875C138.078 30.1875 142.922 32.0469 146.391 35.7656C149.891 39.4531 151.641 44.6094 151.641 51.2344V78H143.953V53.0156C143.953 47.9844 142.703 44.0781 140.203 41.2969C137.734 38.4844 134.281 37.0781 129.844 37.0781C125.375 37.0781 121.859 38.5 119.297 41.3438C116.734 44.1875 115.453 48.0781 115.453 53.0156V78H107.766Z" fill="currentColor"/>
<path d="M186.047 78.9375C181.391 78.9375 177.203 77.875 173.484 75.75C169.766 73.625 166.828 70.7344 164.672 67.0781C162.547 63.3906 161.484 59.2188 161.484 54.5625C161.484 49.9375 162.547 45.7969 164.672 42.1406C166.828 38.4531 169.766 35.5469 173.484 33.4219C177.203 31.2656 181.391 30.1875 186.047 30.1875C190.703 30.1875 194.875 31.2656 198.562 33.4219C202.25 35.5469 205.156 38.4531 207.281 42.1406C209.406 45.7969 210.469 49.9375 210.469 54.5625C210.469 59.2188 209.406 63.3906 207.281 67.0781C205.156 70.7344 202.25 73.625 198.562 75.75C194.875 77.875 190.703 78.9375 186.047 78.9375ZM186 72C189.156 72 191.984 71.2344 194.484 69.7031C196.984 68.1719 198.953 66.0938 200.391 63.4688C201.859 60.8438 202.594 57.8594 202.594 54.5156C202.594 51.2344 201.859 48.2812 200.391 45.6562C198.953 43.0312 196.984 40.9531 194.484 39.4219C191.984 37.8906 189.156 37.125 186 37.125C182.844 37.125 180 37.8906 177.469 39.4219C174.969 40.9531 172.984 43.0312 171.516 45.6562C170.078 48.2812 169.359 51.2344 169.359 54.5156C169.359 57.8594 170.078 60.8438 171.516 63.4688C172.984 66.0938 174.969 68.1719 177.469 69.7031C180 71.2344 182.844 72 186 72Z" fill="currentColor"/>
<path d="M312.609 78H305.484L287.766 21.8906L270.047 78H262.922L240.047 7.6875H248.672L266.438 63.9375L284.203 7.6875H291.328L309.047 63.7969L326.719 7.6875H335.391L312.609 78Z" fill="currentColor"/>
<path d="M382.125 72.2344C376.312 76.7031 369.906 78.9375 362.906 78.9375C358.031 78.9375 353.656 77.8438 349.781 75.6562C345.906 73.4688 342.844 70.5 340.594 66.75C338.375 62.9688 337.266 58.7031 337.266 53.9531C337.266 49.3906 338.297 45.3281 340.359 41.7656C342.422 38.1719 345.25 35.3438 348.844 33.2812C352.438 31.2188 356.516 30.1875 361.078 30.1875C365.766 30.1875 369.891 31.3125 373.453 33.5625C377.047 35.8125 379.844 38.9375 381.844 42.9375C383.844 46.9375 384.844 51.5625 384.844 56.8125V58.3125H345.609C346.172 61.0625 347.297 63.4531 348.984 65.4844C350.703 67.5156 352.828 69.0938 355.359 70.2188C357.891 71.3438 360.719 71.9062 363.844 71.9062C369.219 71.9062 374.125 70.1406 378.562 66.6094L382.125 72.2344ZM345.328 51.75H377.578C377.234 48.8438 376.328 46.3125 374.859 44.1562C373.422 41.9688 371.547 40.2656 369.234 39.0469C366.953 37.8281 364.375 37.2188 361.5 37.2188C358.594 37.2188 355.969 37.8281 353.625 39.0469C351.312 40.2656 349.422 41.9688 347.953 44.1562C346.516 46.3125 345.641 48.8438 345.328 51.75Z" fill="currentColor"/>
<path d="M422.625 78H413.953L442.828 7.6875H451.781L480.609 78H471.938L464.297 59.0156H430.266L422.625 78ZM433.172 51.7031H461.391L447.281 16.5938L433.172 51.7031Z" fill="currentColor"/>
<path d="M497.672 78H489.984V31.125H496.734L497.062 40.4062C498.688 37.1875 500.969 34.6875 503.906 32.9062C506.875 31.0938 510.281 30.1875 514.125 30.1875C514.969 30.1875 515.828 30.2344 516.703 30.3281C517.578 30.4219 518.453 30.5625 519.328 30.75L518.391 37.6875C516.672 37.2812 514.969 37.0781 513.281 37.0781C510.219 37.0781 507.5 37.8281 505.125 39.3281C502.781 40.8281 500.953 42.8906 499.641 45.5156C498.328 48.1406 497.672 51.1562 497.672 54.5625V78Z" fill="currentColor"/>
<path d="M568.406 72.2344C562.594 76.7031 556.188 78.9375 549.188 78.9375C544.312 78.9375 539.938 77.8438 536.062 75.6562C532.188 73.4688 529.125 70.5 526.875 66.75C524.656 62.9688 523.547 58.7031 523.547 53.9531C523.547 49.3906 524.578 45.3281 526.641 41.7656C528.703 38.1719 531.531 35.3438 535.125 33.2812C538.719 31.2188 542.797 30.1875 547.359 30.1875C552.047 30.1875 556.172 31.3125 559.734 33.5625C563.328 35.8125 566.125 38.9375 568.125 42.9375C570.125 46.9375 571.125 51.5625 571.125 56.8125V58.3125H531.891C532.453 61.0625 533.578 63.4531 535.266 65.4844C536.984 67.5156 539.109 69.0938 541.641 70.2188C544.172 71.3438 547 71.9062 550.125 71.9062C555.5 71.9062 560.406 70.1406 564.844 66.6094L568.406 72.2344ZM531.609 51.75H563.859C563.516 48.8438 562.609 46.3125 561.141 44.1562C559.703 41.9688 557.828 40.2656 555.516 39.0469C553.234 37.8281 550.656 37.2188 547.781 37.2188C544.875 37.2188 542.25 37.8281 539.906 39.0469C537.594 40.2656 535.703 41.9688 534.234 44.1562C532.797 46.3125 531.922 48.8438 531.609 51.75Z" fill="currentColor"/>
</svg>
