<svg width="100%" height="100%" viewBox="0 0 349 104" fill="none" xmlns="http://www.w3.org/2000/svg">
<path d="M75.1406 78H68.0156L50.2969 21.8906L32.5781 78H25.4531L2.57812 7.6875H11.2031L28.9688 63.9375L46.7344 7.6875H53.8594L71.5781 63.7969L89.25 7.6875H97.9219L75.1406 78Z" fill="currentColor"/>
<path d="M107.766 78V7.6875H115.453V38.1562C118.984 32.8438 124.453 30.1875 131.859 30.1875C138.078 30.1875 142.922 32.0469 146.391 35.7656C149.891 39.4531 151.641 44.6094 151.641 51.2344V78H143.953V53.0156C143.953 47.9844 142.703 44.0781 140.203 41.2969C137.734 38.4844 134.281 37.0781 129.844 37.0781C125.375 37.0781 121.859 38.5 119.297 41.3438C116.734 44.1875 115.453 48.0781 115.453 53.0156V78H107.766Z" fill="currentColor"/>
<path d="M178.688 101.438H170.297L180.141 77.625L157.734 31.125H166.219L183.844 68.7656L199.406 31.125H207.75L178.688 101.438Z" fill="currentColor"/>
<path d="M300.094 7.6875V46.5469C300.094 53.3594 298.906 59.2344 296.531 64.1719C294.188 69.0781 290.812 72.8438 286.406 75.4688C282 78.0938 276.719 79.4062 270.562 79.4062C264.438 79.4062 259.172 78.0938 254.766 75.4688C250.359 72.8438 246.969 69.0781 244.594 64.1719C242.25 59.2344 241.078 53.3594 241.078 46.5469V7.6875H249.328V45.8906C249.328 51.4219 250.172 56.1406 251.859 60.0469C253.547 63.9531 255.969 66.9375 259.125 69C262.312 71.0625 266.125 72.0938 270.562 72.0938C275.031 72.0938 278.844 71.0625 282 69C285.188 66.9375 287.625 63.9531 289.312 60.0469C291 56.1406 291.844 51.4219 291.844 45.8906V7.6875H300.094Z" fill="currentColor"/>
<path d="M310.922 73.9219L312.938 66.7031C314.062 67.7656 315.344 68.6875 316.781 69.4688C318.219 70.25 319.734 70.8594 321.328 71.2969C322.922 71.7031 324.531 71.9062 326.156 71.9062C329.062 71.9062 331.406 71.2656 333.188 69.9844C334.969 68.7031 335.859 67.0312 335.859 64.9688C335.859 63.4688 335.391 62.2344 334.453 61.2656C333.547 60.2656 332.344 59.4062 330.844 58.6875C329.344 57.9688 327.734 57.2812 326.016 56.625C323.922 55.8125 321.844 54.8906 319.781 53.8594C317.719 52.8281 316 51.4688 314.625 49.7812C313.281 48.0938 312.609 45.875 312.609 43.125C312.609 40.5 313.266 38.2188 314.578 36.2812C315.891 34.3438 317.719 32.8438 320.062 31.7812C322.438 30.7188 325.156 30.1875 328.219 30.1875C332.844 30.1875 337.391 31.3438 341.859 33.6562L339.562 40.5938C338.562 39.9375 337.406 39.3594 336.094 38.8594C334.781 38.3281 333.438 37.9219 332.062 37.6406C330.688 37.3594 329.391 37.2188 328.172 37.2188C325.891 37.2188 324.047 37.75 322.641 38.8125C321.234 39.8438 320.531 41.2344 320.531 42.9844C320.531 43.9844 320.812 44.9062 321.375 45.75C321.969 46.5625 322.953 47.375 324.328 48.1875C325.703 49 327.609 49.9062 330.047 50.9062C332.203 51.7812 334.328 52.7812 336.422 53.9062C338.516 55 340.25 56.4219 341.625 58.1719C343.031 59.8906 343.734 62.1406 343.734 64.9219C343.734 67.6719 343 70.1094 341.531 72.2344C340.094 74.3281 338.078 75.9688 335.484 77.1562C332.922 78.3438 329.953 78.9375 326.578 78.9375C320.984 78.9375 315.766 77.2656 310.922 73.9219Z" fill="currentColor"/>
</svg>
