<svg width="100%" height="100%" viewBox="0 0 275 240" fill="none" xmlns="http://www.w3.org/2000/svg">
<path fill-rule="evenodd" clip-rule="evenodd" d="M249.493 0L275 30.0869V209.681L249.493 239.767V0Z" fill="currentColor"/>
<path fill-rule="evenodd" clip-rule="evenodd" d="M0.238159 33.7V0H240.003V239.767H190.727L138.852 162.957C161.299 151.778 176.737 128.595 176.737 101.835C176.737 64.4637 146.63 34.0697 109.372 33.5988C109.27 33.5981 28.2262 33.6738 0.238159 33.7ZM235.23 36.4061C235.23 34.5624 233.731 33.0656 231.887 33.0656H214.204C212.357 33.0656 210.861 34.5624 210.861 36.4061V54.0929C210.861 55.9366 212.357 57.4334 214.204 57.4334H231.887C233.731 57.4334 235.23 55.9366 235.23 54.0929V36.4061ZM206.156 8.04526C206.156 6.20159 204.66 4.70476 202.816 4.70476H185.129C183.286 4.70476 181.79 6.20159 181.79 8.04526V25.7321C181.79 27.5758 183.286 29.0726 185.129 29.0726H202.816C204.66 29.0726 206.156 27.5758 206.156 25.7321V8.04526ZM235.23 8.00234C235.23 6.15866 233.731 4.66184 231.887 4.66184H214.204C212.357 4.66184 210.861 6.15866 210.861 8.00234V25.6892C210.861 27.5329 212.357 29.0297 214.204 29.0297H231.887C233.731 29.0297 235.23 27.5329 235.23 25.6892V8.00234Z" fill="currentColor"/>
<path fill-rule="evenodd" clip-rule="evenodd" d="M91.6053 160.924H28.9987L28.8932 239.992H0V42.8486L109.252 42.7432C141.517 43.1382 167.592 69.4766 167.592 101.847C167.592 128.765 149.523 151.521 124.871 158.633L179.813 239.808H144.862L125.924 211.652L91.6053 160.924ZM28.8669 132.004V71.4785L108.567 71.3995C125.108 71.6102 138.672 85.0955 138.672 101.689C138.672 118.361 125.002 131.899 108.356 132.004H28.8669Z" fill="currentColor"/>
</svg>
