<svg width="591" height="516" viewBox="0 0 591 516" fill="none" xmlns="http://www.w3.org/2000/svg">
<path fill-rule="evenodd" clip-rule="evenodd" d="M535.485 0L590.229 64.6036V450.234L535.485 514.836V0Z" fill="white"/>
<path fill-rule="evenodd" clip-rule="evenodd" d="M0.51123 72.3616V0H515.117V514.836H409.357L298.015 349.905C346.194 325.902 379.329 276.125 379.329 218.664C379.329 138.418 314.711 73.1556 234.744 72.1444C234.525 72.143 60.5818 72.3055 0.51123 72.3616ZM504.872 78.1723C504.872 74.2135 501.655 70.9996 497.699 70.9996H459.744C455.78 70.9996 452.571 74.2135 452.571 78.1723V116.15C452.571 120.109 455.78 123.323 459.744 123.323H497.699C501.655 123.323 504.872 120.109 504.872 116.15V78.1723ZM442.47 17.2751C442.47 13.3163 439.261 10.1021 435.303 10.1021H397.342C393.386 10.1021 390.175 13.3163 390.175 17.2751V55.2527C390.175 59.2116 393.386 62.4255 397.342 62.4255H435.303C439.261 62.4255 442.47 59.2116 442.47 55.2527V17.2751ZM504.872 17.1827C504.872 13.2242 501.655 10.01 497.699 10.01H459.744C455.78 10.01 452.571 13.2242 452.571 17.1827V55.1606C452.571 59.1195 455.78 62.3334 459.744 62.3334H497.699C501.655 62.3334 504.872 59.1195 504.872 55.1606V17.1827Z" fill="white"/>
<path fill-rule="evenodd" clip-rule="evenodd" d="M196.612 345.541H62.2396L62.0134 515.319H0V92.0054L234.487 91.7789C303.735 92.6277 359.7 149.182 359.7 218.688C359.7 276.487 320.921 325.351 268.009 340.621L385.93 514.923H310.916L270.271 454.467L196.612 345.541ZM61.9567 283.443V153.48L233.017 153.311C268.517 153.764 297.631 182.719 297.631 218.35C297.631 254.147 268.292 283.217 232.565 283.443H61.9567Z" fill="white"/>
</svg>
