<svg width="2471" height="367" viewBox="0 0 2471 367" fill="none" xmlns="http://www.w3.org/2000/svg">
<path d="M1349.21 317H1338.1L1265.3 90.3887L1192.32 317H1181.22L1097.82 60.6523H1113.54L1186.68 287.435L1259.66 60.6523H1270.77L1343.74 286.922L1416.37 60.6523H1432.27L1349.21 317Z" fill="#8CE3FF"/>
<path d="M1461.16 317V60.6523H1612.58V74.3242H1476.2V179.085H1605.57V192.757H1476.2V303.328H1614.29V317H1461.16Z" fill="#8CE3FF"/>
<path d="M1871.17 317H1855.11L1962.43 60.6523H1979.86L2087.02 317H2071.12L2038.14 238.387H1903.81L1871.17 317ZM1909.45 224.715H2032.67L1970.98 76.7168L1909.45 224.715Z" fill="#8CE3FF"/>
<path d="M2284.76 317H2267.84L2201.53 204.891H2129.24V317H2114.2V60.6523H2197.26C2214.01 60.6523 2228.48 63.6146 2240.67 69.5391C2252.97 75.4635 2262.49 83.8376 2269.21 94.6611C2275.93 105.371 2279.29 118.074 2279.29 132.771C2279.29 151.684 2273.77 167.293 2262.71 179.598C2251.78 191.902 2236.8 199.707 2217.77 203.011L2284.76 317ZM2129.24 191.219H2196.58C2217.2 191.219 2233.55 185.978 2245.62 175.496C2257.82 164.9 2263.91 150.659 2263.91 132.771C2263.91 114.884 2257.87 100.7 2245.8 90.2178C2233.72 79.6221 2217.31 74.3242 2196.58 74.3242H2129.24V191.219Z" fill="#8CE3FF"/>
<path d="M2316.9 317V60.6523H2468.32V74.3242H2331.94V179.085H2461.31V192.757H2331.94V303.328H2470.03V317H2316.9Z" fill="#8CE3FF"/>
<path d="M972 0H982V367H972V0Z" fill="#8CE3FF"/>
<path d="M1728 0H1738V367H1728V0Z" fill="#8CE3FF"/>
<path d="M252.209 317H241.101L168.298 90.3887L95.3242 317H84.2158L0.817383 60.6523H16.54L89.6846 287.435L162.658 60.6523H173.767L246.74 286.922L319.372 60.6523H335.266L252.209 317Z" fill="#8CE3FF"/>
<path d="M379.2 317H364.161V60.6523H379.2V183.528H543.604V60.6523H558.644V317H543.604V197.2H379.2V317Z" fill="#8CE3FF"/>
<path d="M723.574 322.127C704.548 322.127 686.945 318.823 670.767 312.215C654.702 305.607 640.688 296.321 628.726 284.358C616.877 272.396 607.648 258.325 601.04 242.146C594.546 225.854 591.299 208.081 591.299 188.826C591.299 169.572 594.546 151.855 601.04 135.677C607.648 119.384 616.877 105.257 628.726 93.2939C640.688 81.3311 654.702 72.0456 670.767 65.4375C686.945 58.8294 704.548 55.5254 723.574 55.5254C742.715 55.5254 760.26 58.8294 776.211 65.4375C792.275 72.0456 806.232 81.3311 818.081 93.2939C830.044 105.257 839.272 119.384 845.767 135.677C852.375 151.855 855.679 169.572 855.679 188.826C855.679 208.081 852.375 225.854 845.767 242.146C839.272 258.325 830.044 272.396 818.081 284.358C806.232 296.321 792.275 305.607 776.211 312.215C760.26 318.823 742.715 322.127 723.574 322.127ZM723.574 308.455C740.322 308.455 755.817 305.493 770.059 299.568C784.3 293.53 796.662 285.156 807.144 274.446C817.625 263.623 825.771 250.976 831.582 236.507C837.393 221.924 840.298 206.03 840.298 188.826C840.298 171.622 837.393 155.729 831.582 141.146C825.771 126.562 817.625 113.916 807.144 103.206C796.662 92.3825 784.3 84.0085 770.059 78.084C755.817 72.1595 740.322 69.1973 723.574 69.1973C706.712 69.1973 691.16 72.1595 676.919 78.084C662.677 84.0085 650.316 92.3825 639.834 103.206C629.352 113.916 621.206 126.562 615.396 141.146C609.585 155.729 606.68 171.622 606.68 188.826C606.68 206.03 609.585 221.924 615.396 236.507C621.206 251.09 629.352 263.794 639.834 274.617C650.316 285.327 662.677 293.644 676.919 299.568C691.16 305.493 706.712 308.455 723.574 308.455Z" fill="#8CE3FF"/>
</svg>
